<svg width="414" height="135" viewBox="0 0 414 135" fill="none" xmlns="http://www.w3.org/2000/svg">
<path d="M150.276 0H150.476C150.454 2.8768 149.73 5.71201 148.671 8.3732C148.307 9.27875 147.853 10.1689 147.143 10.8542C144.741 13.2705 141.693 14.8984 138.65 16.3583C135.802 21.8439 134.093 27.9872 134.198 34.1935C134.261 40.8142 136.335 47.2746 139.421 53.0852C143.299 60.328 148.548 66.7315 154.155 72.6946C156.293 74.9384 158.834 76.7726 161.576 78.2048C166.985 81.0431 173.002 82.4646 178.434 85.2474C183.293 87.8286 187.908 90.844 192.351 94.0796C197.135 97.5786 201.73 101.332 206.125 105.306C206.33 105.453 206.587 105.805 206.808 105.474C215.5 97.634 224.738 90.2249 235.215 84.8948C240.849 82.0349 246.819 79.8003 253.006 78.4867C253.377 78.4112 253.746 78.2726 254.001 77.9754C256.053 75.8224 258.122 73.6817 260.182 71.5349C261.607 70.0981 262.934 68.5673 264.391 67.1643C261.165 70.979 257.686 74.5734 254.252 78.2002C258.805 77.2577 263.5 76.9081 268.132 77.3886C268.569 77.424 269.058 77.5272 269.449 77.2562C277.673 72.2741 286.463 68.2731 294.49 62.9615C286.631 68.4425 278.352 73.3275 269.732 77.5164C276.277 78.7361 282.613 80.8214 288.972 82.751C295.077 84.6037 301.22 86.441 307.549 87.3527C311.473 87.9117 315.473 88.1119 319.415 87.616C322.74 87.2018 326.013 86.2747 329.013 84.77C330.22 84.211 331.321 83.4533 332.478 82.8003C329.701 84.8286 326.547 86.2685 323.369 87.5467C329.792 86.7274 336.297 87.3619 342.641 88.5015C345.176 88.9466 347.684 89.5272 350.205 90.0462C350.409 89.8537 350.617 89.6627 350.826 89.4718C351.094 89.8583 351.314 90.3881 351.853 90.4389C356.768 91.5601 361.66 92.7721 366.607 93.7485C371.247 94.634 375.972 95.3039 380.708 95.0852C384.591 94.9035 388.512 94.0195 391.882 92.0221C393.878 90.924 395.57 89.3686 397.118 87.7146C395.249 90.0231 392.88 91.9004 390.336 93.4173C386.233 95.8013 381.334 96.2387 376.685 96.0031C371.765 95.7443 366.923 94.7649 362.116 93.7408C358.751 92.9969 355.392 92.2377 352.033 91.4707C353.33 94.0565 354.371 96.7762 355.074 99.5837C355.318 100.606 355.629 101.646 355.492 102.71C355.175 106.092 353.986 109.341 352.438 112.346C351.898 113.273 351.519 114.367 350.592 114.992C350.671 113.829 351.069 112.668 350.834 111.501C350.395 108.913 349.298 106.511 348.394 104.067C347.435 101.533 346.535 98.8291 346.959 96.0847C347.219 94.1365 348.239 92.4009 349.434 90.8794C343.491 89.6211 337.499 88.4692 331.422 88.1258C327.513 87.9132 323.57 88.0103 319.708 88.6786C317.854 88.9343 316.009 89.3855 314.128 89.3593C315.234 89.5826 315.969 90.4836 316.817 91.1458C318.516 92.481 320.5 93.3742 322.422 94.3337C322.921 94.52 322.894 95.0868 322.896 95.5257C323.302 95.9754 323.717 96.4189 324.117 96.8763C324.068 97.1704 323.931 97.4708 324.002 97.7726C324.253 98.2654 324.716 98.6412 324.866 99.1894C324.864 99.6438 324.664 100.072 324.659 100.526C324.725 100.959 324.973 101.362 324.953 101.809C324.839 102.102 324.639 102.351 324.471 102.611C324.661 103.324 325.154 104.091 324.745 104.82C324.302 105.471 325.018 106.169 324.764 106.853C324.662 107.176 324.516 107.483 324.384 107.795C324.588 108.294 324.767 108.804 324.907 109.328C324.779 109.545 324.658 109.765 324.542 109.987C324.895 110.332 325.24 110.686 325.539 111.083C325.321 111.561 325.073 112.046 325.06 112.582C325.041 113.247 325.146 113.909 325.132 114.578C324.601 114.476 323.968 114.356 323.67 113.854C323.509 113.353 323.707 112.82 323.768 112.318C323.084 112.218 322.389 112.138 321.753 111.861C321.712 111.517 321.702 111.171 321.605 110.84C320.788 110.658 319.945 110.791 319.12 110.798C319.095 110.573 319.073 110.349 319.055 110.125C318.396 110.002 317.689 110.013 317.081 109.709C316.971 109.432 317.008 109.103 316.851 108.852C316.328 108.422 315.598 108.424 315.031 108.079C314.978 107.751 315.006 107.415 314.938 107.091C313.987 106.2 312.739 105.687 311.815 104.755C310.797 103.847 310.392 102.462 310.266 101.147C310.098 99.1817 310.223 97.1997 310.515 95.2516C310.8 93.6776 311.111 92.0529 311.98 90.6792C312.288 90.1571 312.767 89.7675 313.289 89.4687C309.567 89.672 305.824 89.3547 302.171 88.6201C296.318 87.5144 290.863 84.9964 285.119 83.4949C287.192 85.1212 289.198 86.8537 290.917 88.8619C294.936 93.4451 297.832 99.0447 299.065 105.026C299.783 108.574 299.901 112.271 299.185 115.831C298.634 118.611 297.562 121.297 295.973 123.647C294.41 125.989 292.341 127.977 289.993 129.522C287.406 131.225 284.498 132.411 281.5 133.167C279.308 133.757 277.052 134.036 274.803 134.292H272.518C267.909 134.145 263.222 133.033 259.361 130.429C255.44 127.842 252.599 123.778 251.27 119.293C249.436 113.198 250.069 106.555 252.262 100.64C251.23 104.581 250.555 108.65 250.737 112.736C250.916 117.425 252.236 122.224 255.25 125.903C257.004 128.062 259.308 129.755 261.861 130.847C264.989 132.199 268.425 132.701 271.816 132.69C277.517 132.744 283.178 130.917 287.871 127.7C292.052 124.885 295.369 120.804 297.231 116.118C298.557 112.765 298.965 109.058 298.386 105.499C297.554 100.195 294.79 95.3871 291.35 91.3414C287.624 86.9276 282.836 83.3686 277.398 81.3712C279.249 84.1894 280.78 87.211 282.054 90.3311C283.144 93.1586 284.196 96.1124 284.111 99.1848C283.867 102.228 282.95 105.174 281.883 108.018C280.887 110.586 279.83 113.204 278.102 115.374C277.814 114.607 278.114 113.797 278.181 113.019C278.544 110.49 277.565 108.045 276.633 105.748C275.333 102.596 273.907 99.4805 272.975 96.1925C272.239 93.5282 272.025 90.6376 272.905 87.981C273.75 85.4369 275.304 83.1484 277.271 81.3357C273.799 80.0744 270.109 79.4815 266.426 79.3814C259.575 79.2243 252.799 80.8075 246.405 83.1668C240.57 85.3352 235.004 88.175 229.677 91.383C224.381 94.5986 219.293 98.1591 214.472 102.052C212.333 103.693 210.323 105.493 208.264 107.232C212.265 110.804 216.547 114.06 220.386 117.813C222.237 119.68 224.107 121.612 225.271 124.003C223.237 123.656 221.54 122.384 219.926 121.18C215.133 117.411 211.009 112.896 206.57 108.735C203.352 111.738 200.324 114.941 197.062 117.899C195.071 119.674 193.078 121.477 190.785 122.858C189.887 123.402 188.911 123.83 187.87 124.004C188.998 121.662 190.82 119.766 192.63 117.941C196.512 114.148 200.844 110.861 204.872 107.23C195.191 98.7166 184.558 91.1288 172.774 85.808C166.426 82.9866 159.715 80.8398 152.783 80.1268C147.254 79.5601 141.57 79.9636 136.29 81.7731C137.892 83.4841 139.349 85.406 140.093 87.656C141.009 90.2094 140.986 93.0216 140.335 95.635C139.525 98.9091 138.043 101.958 136.788 105.075C135.952 107.09 135.071 109.144 134.894 111.342C134.797 112.535 135.111 113.703 135.192 114.886C135.239 115.155 134.84 115.403 134.737 115.052C132.574 111.889 131.227 108.251 130.107 104.61C129.445 102.203 128.766 99.6992 129.119 97.1843C129.448 94.6417 130.329 92.2161 131.281 89.8491C132.414 87.1771 133.706 84.5637 135.271 82.1181C129.893 84.1432 125.094 87.5775 121.292 91.8696C117.999 95.558 115.497 100.075 114.705 104.992C114.169 108.233 114.431 111.591 115.424 114.721C116.627 118.435 118.76 121.826 121.477 124.62C125.941 129.012 131.934 131.746 138.122 132.55C144.185 133.304 150.567 131.758 155.438 128.025C159.511 124.953 162.457 120.297 163.095 115.197C163.538 112.076 162.921 108.95 162.356 105.89C162.685 107.332 163.05 108.768 163.277 110.232C163.785 113.424 163.831 116.734 163.026 119.883C162.362 122.524 161.057 125.011 159.199 127.009C157.297 129.075 154.866 130.609 152.265 131.638C147.209 133.62 141.61 133.882 136.28 133.075C130.252 132.129 124.351 129.787 119.64 125.857C116.216 123.009 113.519 119.165 112.491 114.796C111.596 111.117 111.913 107.221 113.037 103.629C114.303 99.5483 116.492 95.8137 119.033 92.4009C121.732 88.7603 125.03 85.5647 128.783 83.0175C122.549 85.0688 116.159 86.7906 109.614 87.442C110.139 87.3481 110.666 87.2649 111.189 87.1633C117.311 85.8558 123.208 83.7151 129.108 81.6653C133.794 80.0252 138.52 78.4405 143.409 77.5164C139.871 75.7916 136.383 73.9666 132.967 72.0139C128.415 69.3912 123.925 66.6422 119.627 63.6191C122.941 65.7028 126.328 67.671 129.778 69.5236C134.339 72.0262 138.984 74.3855 143.424 77.1037C143.695 77.2469 143.966 77.4641 144.294 77.4364C149.108 77.0067 154.036 76.885 158.772 78.0077C154.729 74.0637 150.602 70.2059 146.687 66.1325C142.842 62.0868 139.237 57.7254 136.694 52.7279C133.696 46.902 132.346 40.2351 132.881 33.7023C133.364 27.5159 135.493 21.5221 138.69 16.2259C138.271 13.9497 138.45 11.4548 139.763 9.48665C141.197 7.23819 143.638 5.9923 145.811 4.5847C146.898 3.84086 148.069 3.17711 148.973 2.20072C149.564 1.5693 149.855 0.74076 150.276 0ZM313.381 90.6591C313.246 91.788 313.449 92.9261 313.763 94.0087C314.726 97.2043 316.32 100.164 318.051 103.003C319.309 105.157 320.777 107.178 322.183 109.237C321.806 108.534 321.362 107.872 320.959 107.187C319.446 104.735 318.117 102.177 316.753 99.6422C315.628 97.4877 314.396 95.3594 313.734 93.0046C313.499 92.2408 313.572 91.4292 313.381 90.6591Z" fill="#B099BF" fill-opacity="0.8"/>
<path d="M262.66 0H262.865C263.379 0.987166 263.841 2.05441 264.742 2.76283C266.332 4.04415 268.118 5.04825 269.821 6.16632C271.446 7.21509 272.989 8.53183 273.836 10.309C274.713 12.0708 274.797 14.116 274.48 16.0287C276.485 19.0257 278.213 22.2413 279.276 25.6987C280.495 29.5195 280.879 33.5991 280.418 37.5816C279.744 43.386 277.404 48.8747 274.384 53.8321C275.318 51.6653 276.203 49.4723 276.828 47.193C277.9 43.4122 278.503 39.499 278.615 35.5719C278.786 29.3717 277.777 23.0406 275.021 17.4425C274.754 16.9174 274.52 16.2921 273.919 16.0719C271.54 14.9692 269.218 13.6925 267.2 12.0031C266.232 11.1653 265.275 10.2444 264.765 9.0462C263.5 6.20329 262.706 3.12012 262.66 0Z" fill="#B099BF" fill-opacity="0.8"/>
<path d="M124.759 2.21304C126.135 2.53645 127.349 3.29877 128.527 4.05031C130.372 5.29158 132.2 6.68686 133.392 8.59959C134.469 10.2736 134.934 12.2433 135.273 14.1807C135.541 15.7977 135.769 17.4317 135.782 19.0734C134.646 18.8347 133.486 18.5883 132.471 17.9985C130.965 17.1268 129.739 15.77 129.04 14.1761C127.697 11.0729 127.846 7.54774 126.439 4.46766C126.049 3.59908 125.335 2.95072 124.759 2.21304Z" fill="#B099BF" fill-opacity="0.8"/>
<path d="M284.63 4.03799C285.801 3.28953 287.013 2.53799 288.38 2.21304C287.866 2.88912 287.173 3.4343 286.808 4.2151C286.344 5.17146 286.14 6.22177 285.893 7.24744C285.306 9.5883 285.149 12.0631 284.096 14.2669C283.321 15.9533 281.965 17.3686 280.275 18.1509C279.351 18.6006 278.355 18.8763 277.351 19.0719C277.377 17.3255 277.625 15.5898 277.924 13.8711C278.259 12.0601 278.711 10.2243 279.705 8.65195C280.902 6.7038 282.764 5.30082 284.63 4.03799Z" fill="#B099BF" fill-opacity="0.8"/>
<path d="M146.892 16.9066C148.679 15.867 150.653 14.9261 152.772 15.0077C154.694 15.057 156.454 15.981 157.974 17.0929C156.286 18.4974 154.545 19.8511 152.623 20.923C150.878 21.8948 148.971 22.7941 146.926 22.7295C144.932 22.6371 142.959 22.2613 141.031 21.7484C140.011 21.4651 138.981 21.154 138.085 20.5749C138.963 20.2654 139.939 20.598 140.801 20.2254C142.962 19.3783 144.895 18.0678 146.892 16.9066Z" fill="#B099BF" fill-opacity="0.8"/>
<path d="M255.165 17.0929C256.737 15.9363 258.581 14.9892 260.58 15.0031C262.759 14.9892 264.752 16.0226 266.58 17.1037C268.395 18.1786 270.176 19.3414 272.135 20.1453C273.046 20.5904 274.084 20.3316 275.053 20.501C274.793 20.7767 274.463 20.963 274.113 21.0924C272.439 21.7377 270.682 22.1396 268.919 22.4415C267.185 22.711 265.361 22.9497 263.667 22.3522C260.473 21.2757 257.729 19.2259 255.165 17.0929Z" fill="#B099BF" fill-opacity="0.8"/>
<path d="M88.2028 24.5513C88.6278 24.6499 89.1591 24.6191 89.461 24.9949C89.7105 25.3522 89.5241 25.8065 89.4825 26.2007C89.9199 26.2038 90.3973 26.0698 90.8131 26.2515C91.021 26.518 91.1473 26.8383 91.309 27.134C91.8542 27.0524 92.3978 26.9538 92.9461 26.8891C92.9769 27.02 93.0416 27.2818 93.0724 27.4127C93.482 27.3973 93.8963 27.2911 94.306 27.3511C94.5462 27.5128 94.5323 27.8424 94.6294 28.0873C95.0621 28.2659 95.5426 28.2875 95.9784 28.4584C96.1786 28.6694 96.1602 29.0067 96.2464 29.2777C97.2243 29.7474 98.2331 30.2033 99.0508 30.9348C100.18 32.2577 100.429 34.0626 100.48 35.7413C100.511 37.4245 100.454 39.1833 99.7038 40.7248C99.4743 41.2716 98.9954 41.7089 98.4348 41.8907C97.5709 41.886 96.8917 41.2654 96.1663 40.8835C94.731 39.9471 93.0308 39.5852 91.52 38.806C91.6062 38.0898 90.9101 37.8018 90.5097 37.3552C90.4035 37.1042 90.5606 36.7885 90.3758 36.5637C90.1247 36.2279 89.8367 35.9215 89.5811 35.5903C89.6673 35.3316 89.7705 35.0744 89.809 34.8018C89.7058 34.4369 89.4918 34.1196 89.3193 33.787C89.4671 33.5698 89.6242 33.3557 89.7305 33.1124C89.6165 32.6088 89.1514 32.1499 89.3732 31.6124C89.5595 31.115 89.3347 30.6237 89.1499 30.1648C89.23 29.9553 89.3116 29.7443 89.3963 29.5364C89.0621 29.0698 88.8064 28.5046 89.1021 27.9471C88.8388 27.6869 88.5708 27.4312 88.3075 27.1725C88.6571 26.3178 88.5169 25.3907 88.2028 24.5513ZM91.1658 28.6109C92.5364 30.5313 93.9672 32.4102 95.287 34.366C96.1864 35.6997 97.172 36.9872 97.8866 38.4333C98.2731 39.2064 98.421 40.0672 98.709 40.8773C98.632 39.8563 98.2824 38.8799 97.8727 37.9512C96.8963 35.8152 95.575 33.847 94.0827 32.039C93.0893 30.9132 92.1745 29.7212 91.1658 28.6109Z" fill="#B099BF" fill-opacity="0.8"/>
<path d="M323.72 24.9394C324.04 24.6237 324.527 24.6453 324.94 24.5467C324.622 25.386 324.482 26.3085 324.83 27.1633C324.582 27.3989 324.336 27.6345 324.094 27.8717C324.279 28.4523 324.076 29.0313 323.749 29.5134C323.826 29.732 323.906 29.9492 323.989 30.1679C323.691 30.7485 323.601 31.3999 323.875 32.0082C323.711 32.3686 323.507 32.7151 323.415 33.1017C323.492 33.3619 323.672 33.5729 323.823 33.7962C323.643 34.1242 323.432 34.4399 323.329 34.8019C323.364 35.0729 323.47 35.3285 323.56 35.5888C323.184 36.1355 322.443 36.5714 322.682 37.3383C322.224 37.751 321.553 38.0868 321.621 38.806C320.287 39.499 318.804 39.8517 317.487 40.5816C316.586 41.0313 315.813 41.7936 314.774 41.9045C314.189 41.7598 313.694 41.3055 313.452 40.7603C312.73 39.3034 312.641 37.6386 312.65 36.04C312.695 34.5678 312.801 33.0216 313.554 31.7156C314.201 30.4112 315.679 29.9045 316.894 29.2777C316.937 29.0082 316.967 28.731 317.051 28.4692C317.455 28.3198 317.897 28.2998 318.307 28.1566C318.633 28.0996 318.541 27.6792 318.647 27.442C319.121 27.3712 319.605 27.3527 320.088 27.3573C320.116 27.2387 320.17 27.0031 320.196 26.8845C320.7 26.9415 321.199 27.0755 321.71 27.0924C322.115 27.0862 322.08 26.5934 322.18 26.3178C322.651 26.1653 323.15 26.153 323.646 26.1653C323.609 25.7649 323.413 25.2813 323.72 24.9394ZM316.06 36.3819C315.327 37.748 314.584 39.1848 314.469 40.7557C314.627 40.3137 314.732 39.8547 314.874 39.4081C315.356 37.8758 316.345 36.5821 317.229 35.2654C318.821 32.9061 320.51 30.616 322.198 28.3244C320.041 30.921 317.681 33.3943 316.06 36.3819Z" fill="#B099BF" fill-opacity="0.8"/>
<path d="M115.786 28.2705C116.806 28.2397 117.839 28.1196 118.759 27.6391C118.688 28.1704 118.788 28.8111 118.403 29.2408C118.026 29.4502 117.559 29.3116 117.148 29.3578C117.192 29.8445 117.317 30.3219 117.337 30.8116C117.059 31.1073 116.7 31.3121 116.418 31.6063C116.564 32.173 116.775 32.7182 117.009 33.2541C116.829 33.3912 116.647 33.5267 116.466 33.6591C116.43 34.1797 116.533 34.6925 116.683 35.1899C116.429 35.3347 116.171 35.4702 115.914 35.6011C115.843 36.1525 115.823 36.7084 115.788 37.2628C115.508 37.3414 115.224 37.4153 114.944 37.4908C114.564 38.692 114.242 39.9394 113.529 40.9975C112.594 42.1232 111.209 42.77 109.81 43.1058C107.807 43.6278 105.719 43.9728 103.649 43.7464C102.631 43.6124 101.449 43.1905 101.065 42.1417C101.145 41.1314 101.576 40.1905 101.932 39.2541C102.636 37.5555 102.785 35.7012 103.348 33.961C103.588 33.8763 103.871 33.864 104.074 33.6961C104.273 33.4097 104.342 33.0585 104.521 32.7613C104.784 32.5318 105.159 32.5365 105.484 32.4656C105.805 32.076 106.073 31.6217 106.502 31.3383C106.813 31.1242 107.195 31.3198 107.541 31.3029C107.852 31.1427 108.108 30.8917 108.42 30.73C108.736 30.6715 109.029 30.8763 109.326 30.9594C109.9 30.71 110.365 30.1247 111.043 30.2017C111.581 30.2433 112.063 29.9861 112.537 29.7721C112.85 29.7936 113.173 29.8783 113.487 29.8044C113.849 29.6535 114.128 29.3516 114.491 29.1992C114.721 29.1653 114.956 29.1668 115.189 29.1283C115.438 28.8819 115.597 28.5631 115.786 28.2705ZM109.599 36.9086C107.923 38.5226 106.241 40.172 104.261 41.4133C103.608 41.8399 102.872 42.1078 102.2 42.4959C105.074 41.5719 107.475 39.6053 109.594 37.5139C111.208 35.826 112.768 34.0811 114.228 32.2592C112.694 33.8178 111.172 35.3886 109.599 36.9086Z" fill="#B099BF" fill-opacity="0.8"/>
<path d="M294.416 27.7608C295.087 27.9579 295.748 28.2243 296.452 28.2859C296.763 28.3352 297.099 28.3183 297.396 28.4507C297.641 28.6648 297.785 28.9651 297.966 29.2346C298.18 29.2023 298.4 29.1684 298.62 29.1314C299.05 29.4055 299.47 29.6966 299.917 29.9476C300.402 29.7859 300.959 29.6766 301.385 30.0477C301.723 30.3681 302.164 30.2926 302.578 30.194C302.983 30.4635 303.391 30.7331 303.822 30.9641C304.083 30.864 304.338 30.7454 304.622 30.6992C304.973 30.8439 305.253 31.1119 305.581 31.3029C305.831 31.3398 306.075 31.2243 306.328 31.1827C306.802 31.3737 307.127 31.7695 307.408 32.1822C307.654 32.6365 308.296 32.444 308.63 32.7828C308.806 33.0816 308.868 33.442 309.089 33.7192C309.296 33.8578 309.554 33.8855 309.795 33.961C310.323 35.6042 310.52 37.3337 311.093 38.9646C311.427 39.8793 311.846 40.771 312.032 41.7336C312.166 42.1863 311.925 42.6945 311.587 42.9887C310.221 43.731 308.617 43.8696 307.09 43.7957C305.305 43.6833 303.539 43.2828 301.874 42.6314C300.775 42.1371 299.666 41.3978 299.184 40.2443C298.76 39.4558 298.56 38.5826 298.272 37.7433C298.144 37.3598 297.653 37.3645 297.347 37.2182C297.303 36.6791 297.291 36.1371 297.228 35.5996C296.968 35.4594 296.635 35.3963 296.475 35.1299C296.507 34.6971 296.657 34.2844 296.72 33.8563C296.577 33.6591 296.359 33.5436 296.172 33.4035C296.387 32.7859 296.549 32.1499 296.681 31.5092C296.366 31.2597 296.051 31.0087 295.774 30.7207C295.874 30.2849 295.964 29.8444 295.994 29.3978C295.566 29.3378 295.067 29.441 294.709 29.1576C294.376 28.7803 294.454 28.2259 294.416 27.7608ZM299.133 32.5334C300.964 34.7618 302.86 36.9564 305.053 38.8414C306.813 40.3321 308.709 41.7782 310.928 42.4959C310.123 42.0215 309.165 41.809 308.47 41.1514C306.242 39.4404 304.178 37.5277 302.168 35.5672C301.124 34.5878 300.206 33.4805 299.133 32.5334Z" fill="#B099BF" fill-opacity="0.8"/>
<path d="M89.0698 40.5416C90.8393 41.2746 92.4517 42.385 94.3198 42.8701C95.2823 43.1119 96.3804 43.346 97.001 44.1946C97.3721 45.4666 96.733 46.7664 95.9799 47.7675C94.3229 49.8465 92.116 51.4451 89.7536 52.6356C87.9887 53.4071 86.2038 52.3722 84.5559 51.7916C84.2679 51.9656 83.9769 52.1366 83.6796 52.2921C83.2731 51.9687 82.9081 51.5452 82.3968 51.3943C82.138 51.462 81.8932 51.5714 81.6452 51.6699C81.2602 51.308 80.8952 50.9246 80.5226 50.5503C80.3254 50.5858 80.1283 50.6258 79.9296 50.6412C79.4661 50.3193 79.423 49.6463 78.9841 49.2967C78.6468 49.1212 78.2972 49.4169 77.9846 49.5139C77.5318 49.1674 77.2022 48.6761 76.6925 48.4035C76.4815 48.6961 76.269 48.9887 76.0487 49.2736C75.4281 49.2675 74.8721 48.9903 74.4656 48.5283C75.368 48.0893 76.2366 47.5241 76.7448 46.6278C77.1329 46.6463 77.521 46.6864 77.9076 46.7433C78.0508 46.5385 78.1925 46.3321 78.3342 46.1273C78.7607 46.0057 79.1889 45.8855 79.617 45.7623C79.8881 45.2664 80.2222 44.7505 80.8105 44.6088C81.1678 44.5365 81.3357 44.2469 81.4219 43.9158C81.8624 43.6001 82.3845 43.4446 82.9065 43.3214C82.9866 43.0534 83.042 42.7762 83.1714 42.5267C83.4995 42.3434 83.8891 42.3296 84.231 42.1771C84.5482 41.9523 84.6961 41.5595 85.0087 41.3301C85.463 41.2177 85.9358 41.2931 86.3994 41.3116C86.6442 41.1299 86.8706 40.9081 87.1601 40.7957C87.5698 40.8095 87.9363 41.0683 88.3475 41.0544C88.6278 40.9512 88.8388 40.7248 89.0698 40.5416ZM94.1242 46.0996C92.31 46.6787 90.4096 46.8973 88.5323 47.173C85.3583 47.578 82.1627 47.7906 78.9702 47.9815C79.5939 48.02 80.2207 48.0062 80.846 47.9908C84.3973 47.8568 87.9964 47.9153 91.4692 47.0406C93.0415 46.6509 94.6247 46.1535 95.9861 45.2541C95.3562 45.5144 94.771 45.8794 94.1242 46.0996Z" fill="#B099BF" fill-opacity="0.8"/>
<path d="M320.082 42.4327C321.498 41.9985 322.697 41.0868 324.066 40.5416C324.291 40.6848 324.481 40.9913 324.79 40.9127C325.237 40.8742 325.679 40.7957 326.128 40.7402C326.316 40.9374 326.513 41.1314 326.715 41.3208C327.273 41.1884 327.929 41.0868 328.415 41.4764C328.508 41.6597 328.566 41.8583 328.64 42.0539C329.05 42.2295 329.495 42.3065 329.912 42.4713C330.059 42.7438 330.117 43.0565 330.282 43.3214C330.704 43.52 331.16 43.6432 331.597 43.8111C331.773 44.1499 331.948 44.5303 332.349 44.6458C332.909 44.8568 333.276 45.3403 333.619 45.807C333.995 45.8978 334.391 45.9548 334.743 46.1319C334.976 46.309 335.156 46.5554 335.416 46.7048C335.72 46.7079 336.023 46.6555 336.333 46.6217C336.975 47.4117 337.784 48.0323 338.663 48.5421C338.264 48.9795 337.733 49.2536 337.137 49.2736C336.901 48.9779 336.729 48.5852 336.353 48.4481C335.94 48.7377 335.629 49.1396 335.275 49.4892C334.934 49.3429 334.582 49.2289 334.217 49.192C333.96 49.6371 333.766 50.1283 333.425 50.5164C333.21 50.749 332.886 50.5688 332.626 50.5565C332.355 50.866 332.128 51.2187 331.816 51.4866C331.454 51.6884 331.061 51.4127 330.71 51.3188C330.35 51.5775 330.029 51.8932 329.644 52.1088C329.267 52.3029 328.917 51.9379 328.597 51.7962C327.481 52.1843 326.399 52.6987 325.229 52.9035C324.148 53.0313 323.121 52.5847 322.231 52.018C320.772 51.1586 319.402 50.1422 318.21 48.9394C317.265 47.9523 316.329 46.8357 316.077 45.4528C316.009 44.9138 315.923 44.1976 316.463 43.865C317.544 43.1242 318.852 42.8362 320.082 42.4327ZM317.167 45.2495C317.868 45.7562 318.675 46.0842 319.479 46.3922C322.171 47.3439 325.032 47.7336 327.875 47.8475C329.952 47.8753 332.028 48.0524 334.107 47.9877C330.846 47.7659 327.576 47.5749 324.333 47.1329C322.566 46.8758 320.784 46.6555 319.077 46.1181C318.405 45.9055 317.809 45.5267 317.167 45.2495Z" fill="#B099BF" fill-opacity="0.8"/>
<path d="M314.184 43.4538C312.553 45.9487 310.729 48.3095 308.911 50.6704C307.425 52.5785 305.769 54.3696 303.865 55.8696C305.868 53.9122 307.526 51.6484 309.269 49.4661C310.877 47.4379 312.462 45.3881 314.184 43.4538Z" fill="#B099BF" fill-opacity="0.8"/>
<path d="M98.9968 43.5246C102.795 47.7351 105.887 52.5585 110 56.4918C107.897 54.7515 105.876 52.8835 104.225 50.6997C102.448 48.3326 100.617 46.0026 98.9968 43.5246Z" fill="#B099BF" fill-opacity="0.8"/>
<path d="M53.4271 51.0924C54.2526 51.0662 55.289 51.0708 55.8188 51.8178C55.8958 52.3121 55.6171 52.8142 55.7172 53.3255C56.481 53.3024 57.2418 53.213 58.0057 53.1622C58.2936 53.5703 58.386 54.3419 58.9867 54.3681C59.7567 54.1432 60.482 53.7505 61.3029 53.7259C61.423 53.9861 61.5477 54.2449 61.691 54.4959C62.4194 54.348 63.1617 54.2633 63.9071 54.2772C64.0072 54.6114 64.1011 54.9487 64.2105 55.2813C65.0144 55.3999 65.8244 55.463 66.6345 55.5354C66.73 55.905 66.7916 56.2808 66.8486 56.6566C67.8003 57.2942 69.0108 57.2587 69.981 57.8501C70.5108 58.1381 71.056 58.4014 71.5657 58.7264C72.4651 59.3393 73.0734 60.2957 73.4615 61.2967C73.9743 62.5934 74.327 63.9502 74.598 65.3178C75.0524 67.4338 75.3111 69.6114 75.1417 71.7767C75.0123 73.2644 74.6011 74.9199 73.289 75.807C74.1068 76.8157 74.9507 77.8214 75.9533 78.6561C80.4795 82.634 86.039 85.2721 91.7803 86.9877C92.7028 87.2618 93.6391 87.4743 94.5785 87.6807C92.4871 87.6129 90.3927 87.2433 88.3013 87.4897C88.54 87.4081 89.0159 87.2449 89.2546 87.1632C88.8603 87.211 88.4784 87.3419 88.0826 87.3542C86.7536 87.2895 85.4276 87.1694 84.0986 87.1078C79.9374 87.1617 75.7793 87.5513 71.6812 88.2844C68.7598 88.8188 65.8506 89.4302 62.9615 90.1155C64.597 91.8357 65.9138 93.9902 66.154 96.3958C66.5113 99.1956 65.6088 101.937 64.634 104.521C63.7854 106.771 62.8044 108.993 62.3301 111.362C62.0436 112.563 62.4949 113.761 62.5565 114.961C62.2254 114.762 61.9174 114.511 61.7218 114.174C59.9091 111.139 58.5046 107.823 57.8594 104.335C57.6869 103.189 57.462 102 57.7685 100.857C58.5647 97.2104 59.8583 93.653 61.7033 90.4035C58.9944 91.0688 56.2885 91.7433 53.5734 92.3747C57.0247 91.1057 60.479 89.8029 64.0719 88.9897C67.8773 88.1596 71.7397 87.5606 75.6299 87.3111C78.3912 87.0677 81.1678 87.0847 83.9384 87.057C85.4091 87.1355 86.8783 87.2603 88.3537 87.2787C88.4476 87.1894 88.5431 87.1016 88.6401 87.0154C87.4451 86.6904 86.3747 86.0467 85.2613 85.5277C80.6566 83.1468 76.4168 79.9605 73.1489 75.9132C72.7053 76.0364 72.2418 76.0241 71.8029 75.8855C69.8917 75.3219 68.1514 74.2977 66.2233 73.7834C64.6325 73.3244 62.9507 73.1843 61.4292 72.5005C61.4245 72.2541 61.4215 72.0092 61.4215 71.7644C60.8825 71.2176 60.1833 70.8881 59.5457 70.4784C59.558 70.1412 59.6381 69.7731 59.4533 69.4682C59.0975 68.8629 58.3383 68.6566 57.9579 68.0729C57.7516 67.6324 58.0195 67.1566 58.1119 66.7207C57.7269 66.2341 57.3527 65.7366 57.0709 65.1822C57.2449 64.828 57.5113 64.4784 57.5036 64.0688C57.4004 63.4836 56.9246 63.0677 56.7228 62.5241C56.6058 62.0837 56.9107 61.6324 56.7428 61.1981C56.5519 60.6068 56.3147 60.0308 56.1176 59.4425C56.21 59.2253 56.3039 59.0082 56.3979 58.7926C56.1453 58.2921 55.8019 57.847 55.5354 57.3557C55.3137 56.9646 55.4507 56.5103 55.5154 56.0991C55.058 55.7957 54.5899 55.5077 54.1694 55.1535C54.5252 53.7536 54.0662 52.3337 53.4271 51.0924ZM59.0698 56.9276C59.96 57.9748 60.9826 58.8973 61.9358 59.883C65.0098 63.037 68.0729 66.2264 70.7002 69.7716C71.3871 70.6971 72.0293 71.6658 72.4805 72.73C72.7023 73.2936 72.8701 73.8789 73.1412 74.4225C72.8778 72.8886 72.2048 71.4533 71.4025 70.1304C69.9856 67.7295 68.136 65.6181 66.211 63.6145C63.9009 61.3137 61.5524 59.0452 59.0698 56.9276Z" fill="#B099BF" fill-opacity="0.8"/>
<path d="M357.975 51.3588C358.477 50.9969 359.13 51.1155 359.713 51.0924C359.074 52.3306 358.612 53.7459 358.973 55.1427C358.555 55.5015 358.089 55.7911 357.627 56.0837C357.688 56.4887 357.818 56.9353 357.619 57.3265C357.359 57.8254 356.998 58.2674 356.758 58.7772C356.86 59.1052 356.985 59.4348 356.997 59.7828C356.849 60.271 356.566 60.7038 356.407 61.1889C356.198 61.6324 356.567 62.1098 356.402 62.5626C356.201 63.0431 355.817 63.4281 355.662 63.9286C355.543 64.3876 355.886 64.7895 356.071 65.1822C355.783 65.7382 355.403 66.2341 355.024 66.7284C355.124 67.1673 355.401 67.6648 355.163 68.1021C354.768 68.5426 354.166 68.7428 353.8 69.2125C353.51 69.5636 353.732 70.0472 353.6 70.4461C353.022 70.9512 352.243 71.2007 351.761 71.8152C351.688 72.0385 351.696 72.2756 351.673 72.5066C350.238 73.1642 348.641 73.289 347.138 73.7263C345.26 74.1945 343.56 75.1478 341.735 75.7669C341.338 75.9009 340.922 75.9733 340.511 76.0133C340.261 75.9271 340.009 75.9378 339.769 76.0148C339.738 75.8393 339.716 75.6653 339.701 75.4912L339.613 75.6699C338.376 74.5811 338.039 72.867 337.962 71.2962C337.845 68.4841 338.358 65.6812 339.109 62.98C339.499 61.6571 339.947 60.2726 340.936 59.2638C341.529 58.6216 342.36 58.2998 343.106 57.8763C344.09 57.2587 345.334 57.3111 346.298 56.6427C346.343 56.2685 346.406 55.8942 346.512 55.5323C347.202 55.463 347.898 55.4368 348.585 55.3244C349.133 55.3167 349.07 54.6283 349.261 54.2603C350 54.2726 350.738 54.3588 351.47 54.4866C351.597 54.2387 351.711 53.9846 351.83 53.7305C352.674 53.749 353.421 54.1571 354.211 54.3896C354.87 54.4404 354.864 53.6288 355.052 53.193C355.828 53.1145 356.599 53.2623 357.373 53.3347C357.714 52.711 357.305 51.79 357.975 51.3588ZM350.382 60.2495C347.121 63.3126 343.87 66.5005 341.586 70.386C340.916 71.618 340.234 72.9009 340.055 74.3085C340.301 73.7926 340.451 73.2366 340.668 72.7068C341.139 71.6026 341.815 70.6016 342.534 69.6437C345.915 65.1206 349.962 61.1596 353.903 57.1355C352.675 58.1119 351.559 59.2161 350.382 60.2495Z" fill="#B099BF" fill-opacity="0.8"/>
<path d="M266.492 64.7818C269.164 61.4754 271.77 58.1011 274.007 54.4805C272.761 57.1186 271.129 59.5719 269.232 61.788C268.326 62.7921 267.445 63.8224 266.492 64.7818Z" fill="#B099BF" fill-opacity="0.8"/>
<path d="M0 68.4995C0.571355 68.5719 1.24589 68.5503 1.68326 68.9877C1.78799 69.3281 1.78953 69.69 1.88039 70.0349C2.35934 70.1628 2.85524 70.0642 3.33881 70.0288C3.54209 70.3399 3.75308 70.6463 3.97639 70.9436C4.58778 70.7849 5.17146 70.5216 5.79517 70.42C5.95072 70.557 6.077 70.7218 6.21407 70.8789C6.75 70.7788 7.29517 70.7156 7.84343 70.7511C7.97741 70.9959 8.03131 71.3178 8.26232 71.4949C8.80904 71.575 9.36653 71.538 9.91325 71.6227C10.0303 71.9277 9.96869 72.3835 10.309 72.5483C10.9251 72.864 11.6427 72.8948 12.2695 73.1889C12.9718 73.5278 13.7526 73.8157 14.2361 74.4641C15.77 76.3152 16.2444 78.7577 16.5277 81.0801C16.7295 82.7202 16.7572 84.5159 15.8824 85.982C15.6145 86.424 15.2202 86.9692 14.6212 86.8321C13.3799 86.6381 12.231 86.0883 11.0575 85.6617C9.60216 85.0703 8.03285 84.8809 6.51283 84.5282C6.44199 84.2972 6.37423 84.0662 6.30493 83.8352C5.83368 83.5426 5.36704 83.2392 4.92197 82.9066C4.89887 82.6571 4.89733 82.4061 4.83727 82.1643C4.4692 81.7962 4.02105 81.5221 3.63142 81.1771C3.65452 80.8614 3.70226 80.5442 3.6653 80.2285C3.56674 79.8727 3.29723 79.6017 3.1309 79.2783C2.89836 78.941 3.26797 78.6053 3.37577 78.2926C3.14322 77.8506 2.8768 77.4302 2.60113 77.0159C2.85062 76.2844 2.44867 75.613 2.1499 74.9723C2.20072 74.6874 2.30236 74.401 2.2731 74.1099C2.0806 73.7126 1.78491 73.3784 1.53388 73.018C1.5308 72.7731 1.54158 72.5267 1.50462 72.2849C1.26899 72.0416 0.971766 71.8722 0.73306 71.6366C0.637577 71.2778 0.663758 70.8974 0.606776 70.5324C0.542094 69.8578 0.243327 69.2434 0 68.6227V68.4995H0ZM3.27259 71.9246C3.9117 72.6638 4.70637 73.2398 5.40092 73.922C6.39117 74.8768 7.40914 75.8039 8.36396 76.7942C10.3398 78.7839 12.3234 80.7921 13.9389 83.0929C14.4517 83.7844 14.7474 84.5976 15.1155 85.3676C14.4564 83.1376 12.9964 81.2526 11.5056 79.5108C9.04928 76.6864 6.10472 74.3517 3.27259 71.9246Z" fill="#B099BF" fill-opacity="0.8"/>
<path d="M411.494 68.8537C411.99 68.6658 412.509 68.5518 413.039 68.4872V68.7351C412.743 69.616 412.352 70.5185 412.54 71.4687C412.209 71.7459 411.873 72.0123 411.536 72.2757C411.621 72.8101 411.587 73.3629 411.148 73.7372C410.61 74.1514 411.177 74.8614 410.764 75.345C410.405 75.8393 410.39 76.4415 410.552 77.0129C410.251 77.4348 409.973 77.8722 409.734 78.3311C409.887 78.5775 410.039 78.8239 410.199 79.0719C409.939 79.4323 409.639 79.7649 409.425 80.153C409.34 80.4749 409.554 80.8137 409.475 81.1402C409.175 81.5698 408.661 81.7731 408.308 82.152C408.245 82.3953 408.233 82.6463 408.212 82.8974C407.769 83.2192 407.312 83.5211 406.86 83.8322C406.774 84.0432 406.702 84.2603 406.603 84.4651C406.368 84.6314 406.067 84.6653 405.804 84.7439C403.677 85.229 401.535 85.7095 399.527 86.5796C399.002 86.8353 398.412 86.8276 397.848 86.7767C397.449 86.2993 397.021 85.8188 396.835 85.2136C396.242 83.0221 396.564 80.7089 397.044 78.5282C397.417 76.8866 398.087 75.2387 399.307 74.0421C400.295 73.3075 401.538 73.0688 402.661 72.6114C403.098 72.4728 403.052 71.903 403.351 71.6365C403.845 71.4517 404.389 71.5518 404.909 71.5488C405.043 71.2839 405.166 71.0128 405.293 70.7418C405.853 70.7156 406.415 70.7818 406.967 70.8973C407.079 70.7156 407.198 70.5354 407.321 70.3552C407.932 70.5647 408.539 70.8326 409.195 70.8819C409.432 70.6216 409.579 70.2952 409.763 69.9948C410.298 69.9964 410.901 70.2875 411.405 70.0395C411.474 69.6483 411.467 69.2479 411.494 68.8537ZM400.612 80.6982C399.559 82.0596 398.535 83.5196 398.099 85.2074C398.734 83.5103 399.889 82.0904 401.091 80.7629C403.004 78.7223 404.883 76.6463 406.92 74.729C407.811 73.8758 408.819 73.1396 409.591 72.1679C406.432 74.826 403.218 77.4733 400.612 80.6982Z" fill="#B099BF" fill-opacity="0.8"/>
<path d="M339.444 76.1828C339.499 76.2474 339.558 76.3121 339.621 76.3799C338.261 77.8029 337.003 79.3537 335.413 80.538C336.779 79.1119 338.33 77.8306 339.444 76.1828Z" fill="#B099BF" fill-opacity="0.8"/>
<path d="M106.44 87.7438C107.387 87.6668 108.334 87.5683 109.284 87.5175C104.483 88.4369 99.4928 88.6171 94.6771 87.6884C98.5935 87.9117 102.524 88.0087 106.44 87.7438Z" fill="#B099BF" fill-opacity="0.8"/>
<path d="M16.3799 87.9964C17.7413 89.1237 19.1073 90.2587 20.6319 91.1643C23.635 93.0647 27.0632 94.2505 30.5729 94.7603C34.634 95.3593 38.769 95.1253 42.8162 94.5493C46.3537 94.018 49.8512 93.2664 53.3332 92.4564C47.8044 94.4753 42.1987 96.6715 36.2587 96.9933C37.5 98.8599 38.0221 101.122 38.1468 103.335C38.1869 104.714 38.0483 106.18 37.3029 107.375C36.6669 108.136 35.8322 108.691 35.0221 109.247C34.597 109.471 34.6771 109.99 34.614 110.39C34.1335 110.553 33.5976 110.633 33.1987 110.974C33.1432 111.196 33.1479 111.43 33.1171 111.659C32.6181 111.761 32.116 111.852 31.6186 111.964C31.6109 112.086 31.597 112.332 31.5893 112.454C31.0195 112.468 30.4497 112.46 29.8799 112.449C29.7474 112.765 29.6689 113.113 29.4641 113.395C29.1237 113.546 28.7341 113.55 28.3968 113.714C28.1612 113.975 28.3984 114.357 28.4107 114.662C28.1058 115.14 27.6052 115.391 27.0693 115.523C27.2741 114.604 27.1371 113.667 26.8568 112.782C27.0262 112.557 27.2295 112.355 27.3481 112.098C27.3973 111.849 27.288 111.604 27.2464 111.362C27.365 110.961 27.4882 110.564 27.5821 110.159C27.1432 109.614 27.2942 108.918 27.405 108.291C27.3096 108.082 27.2018 107.878 27.1448 107.657C27.2172 107.242 27.3573 106.842 27.4405 106.431C27.2618 106.271 27.0816 106.112 26.9045 105.953C27.0616 105.531 27.2079 105.103 27.2711 104.657C27.1525 104.395 26.8645 104.121 27.0185 103.814C27.1833 103.497 27.4358 103.238 27.6129 102.93C27.8193 102.671 27.5945 102.36 27.5529 102.086C27.981 101.607 28.6756 101.15 28.4723 100.409C29.4672 99.8624 30.4697 99.3296 31.44 98.7397C32.2531 98.2346 32.9554 97.577 33.7115 96.9964C30.6622 96.8501 27.7054 95.886 24.9995 94.5031C21.787 92.8429 18.8517 90.636 16.3799 87.9964ZM35.4795 97.232C35.2777 99.2988 34.5508 101.264 33.6807 103.135C32.5472 105.681 31.075 108.052 29.7921 110.52C30.8224 109.05 31.7618 107.516 32.6304 105.947C33.8547 103.634 35.0252 101.235 35.4487 98.6273C35.5103 98.1668 35.5965 97.691 35.4795 97.232Z" fill="#B099BF" fill-opacity="0.8"/>
<path d="M97.7788 89.923C98.2947 89.5164 98.9831 89.2438 99.6407 89.4348C100.385 89.6273 100.934 90.2326 101.316 90.8717C102.105 92.1884 102.391 93.7207 102.667 95.21C102.941 97.1319 103.06 99.0847 102.892 101.022C102.776 102.196 102.488 103.414 101.723 104.344C101.038 105.114 100.195 105.728 99.3265 106.275C98.9061 106.546 98.3825 106.734 98.1268 107.193C98.1006 107.496 98.1345 107.803 98.1083 108.109C97.4631 108.397 96.7392 108.494 96.1494 108.909C96.1448 109.189 96.1371 109.469 96.1248 109.753C95.4718 109.9 94.7865 109.911 94.1535 110.136C94.078 110.355 94.0288 110.583 93.9702 110.809C93.1571 110.761 92.3393 110.715 91.5262 110.801C91.4061 111.203 91.5924 111.845 91.0703 111.998C90.5267 112.209 89.9307 112.198 89.3655 112.321C89.4287 112.808 89.6089 113.308 89.4934 113.801C89.2131 114.323 88.5662 114.531 88.0041 114.511C87.9718 113.861 88.1042 113.218 88.0857 112.569C88.0688 112.046 87.8224 111.57 87.6022 111.109C87.8578 110.694 88.2059 110.35 88.577 110.037C88.4661 109.711 88.2059 109.4 88.3029 109.04C88.3891 108.602 88.5924 108.202 88.768 107.795C88.5247 107.061 88.3106 106.289 88.4892 105.513C88.6371 105.005 88.152 104.603 88.2059 104.099C88.2952 103.577 88.5324 103.098 88.6725 102.59C88.4908 102.333 88.2706 102.092 88.1658 101.792C88.1458 101.336 88.3922 100.923 88.5524 100.511C88.4261 100.118 88.2644 99.7315 88.2151 99.3188C88.3152 98.7058 88.8681 98.3193 89.1515 97.7972C89.2146 97.4846 89.0745 97.1797 89.0159 96.8778C89.424 96.4127 89.8476 95.9631 90.2665 95.5087C90.2418 95.1022 90.1941 94.557 90.653 94.3676C92.2793 93.5452 93.9472 92.7829 95.4656 91.7665C96.3065 91.2444 97.0041 90.5344 97.7788 89.923ZM99.3943 93.0524C98.9246 94.674 98.2054 96.2125 97.4092 97.6987C96.0447 100.281 94.6771 102.864 93.2372 105.407C92.5118 106.688 91.6987 107.918 90.9856 109.206C92.0221 107.709 93.0401 106.2 94.0611 104.692C96.1648 101.292 98.247 97.808 99.3927 93.9487C99.6884 92.8753 99.9102 91.748 99.7377 90.6345C99.5775 91.4353 99.6345 92.2669 99.3943 93.0524Z" fill="#B099BF" fill-opacity="0.8"/>
<path d="M376.284 98.0098C376.619 97.4091 376.927 96.6591 377.634 96.4235C378.38 96.0462 379.06 96.7515 379.622 97.1658C381.105 98.5318 382.927 99.4251 384.667 100.411C384.456 101.162 385.181 101.629 385.62 102.112C385.562 102.24 385.445 102.496 385.386 102.624C385.626 103.076 385.95 103.482 386.17 103.947C386.104 104.258 385.907 104.536 385.899 104.86C385.951 105.237 386.108 105.59 386.239 105.949C386.056 106.109 385.874 106.269 385.7 106.432C385.825 107.056 386.167 107.709 385.737 108.294C385.851 108.924 385.982 109.606 385.56 110.158C385.646 110.569 385.768 110.972 385.897 111.374C385.848 111.614 385.733 111.855 385.785 112.104C385.913 112.354 386.105 112.562 386.282 112.782C385.997 113.674 385.871 114.611 386.064 115.539C385.671 115.388 385.197 115.337 384.936 114.976C384.667 114.594 384.742 114.082 384.51 113.69C384.214 113.53 383.878 113.472 383.564 113.384C383.483 113.107 383.429 112.825 383.316 112.563C382.828 112.358 382.288 112.526 381.782 112.463C381.638 112.312 381.544 112.129 381.439 111.959C380.974 111.842 380.503 111.755 380.039 111.658C379.982 111.41 379.941 111.162 379.865 110.926C379.452 110.669 378.969 110.57 378.524 110.401C378.45 110.014 378.554 109.502 378.154 109.272C377.555 108.847 376.927 108.46 376.397 107.948C375.42 107.19 375.162 105.887 375.025 104.727C374.857 102.434 375.303 100.089 376.284 98.0098ZM377.649 97.2474C377.535 98.6489 377.958 100.018 378.394 101.332C379.673 104.881 381.698 108.096 383.778 111.223C382.301 108.564 380.781 105.926 379.482 103.174C378.598 101.296 377.835 99.3311 377.649 97.2474Z" fill="#B099BF" fill-opacity="0.8"/>
<path d="M176.001 102.687C176.427 102.339 176.677 101.828 176.983 101.378C177.308 101.503 177.722 101.541 177.946 101.846C178.078 102.151 178.097 102.49 178.154 102.816C178.753 102.516 179.393 102.294 180.071 102.271C179.912 102.981 179.754 103.7 179.746 104.433C179.86 104.932 180.151 105.4 180.113 105.93C179.82 106.277 179.413 106.488 179.042 106.733C179.062 108.192 178.548 109.592 178.539 111.046C178.292 111.416 177.993 111.745 177.659 112.038C177.943 112.523 178.354 112.907 178.805 113.238C178.207 114.103 178.149 115.306 177.266 115.968C176.056 116.945 174.471 117.263 172.96 117.413C171.276 117.533 169.551 117.439 167.929 116.94C166.907 116.561 165.919 116.097 164.918 115.669C164.754 112.671 164.891 109.565 166.063 106.76C166.671 105.428 167.512 104.067 168.881 103.415C170.081 102.87 171.444 102.898 172.731 102.963C173.43 103.083 173.581 103.879 173.794 104.438C173.931 103.927 173.952 103.291 174.457 102.986C174.93 102.733 175.503 102.869 176.001 102.687Z" fill="#B099BF" fill-opacity="0.8"/>
<path d="M235.198 101.846C235.417 101.546 235.822 101.504 236.147 101.372C236.438 101.807 236.694 102.28 237.079 102.645C237.605 102.921 238.32 102.662 238.799 103.078C239.211 103.408 239.213 103.971 239.339 104.439C239.483 104.191 239.55 103.914 239.596 103.636C239.901 103.323 240.236 102.953 240.713 102.95C242.097 102.893 243.611 102.915 244.802 103.728C245.906 104.496 246.613 105.701 247.141 106.911C248.251 109.68 248.382 112.722 248.224 115.666C246.762 116.264 245.355 117.069 243.767 117.277C241.732 117.585 239.61 117.542 237.641 116.912C236.757 116.598 235.847 116.144 235.311 115.346C234.944 114.661 234.753 113.895 234.337 113.236C234.79 112.899 235.203 112.506 235.491 112.015C235.157 111.728 234.727 111.485 234.591 111.04C234.533 110.547 234.648 110.039 234.471 109.56C234.18 108.648 234.188 107.689 234.131 106.746C233.726 106.498 233.332 106.234 232.974 105.924C233.05 105.403 233.262 104.918 233.395 104.415C233.382 103.689 233.225 102.976 233.07 102.271C233.743 102.302 234.387 102.514 234.984 102.819C235.044 102.493 235.049 102.148 235.198 101.846Z" fill="#B099BF" fill-opacity="0.8"/>
<path d="M155.119 106.03C155.536 105.642 155.82 105.146 156.079 104.646C156.745 104.912 157.466 104.932 158.17 105.023C159.003 105.422 159.727 106.058 160.16 106.883C160.905 107.695 161.19 108.782 161.498 109.813C161.806 110.92 161.945 112.066 162.077 113.205C162.128 114.725 161.627 116.184 161.432 117.678C159.987 118.013 158.555 118.435 157.072 118.558C154.86 118.754 152.538 118.716 150.477 117.796C149.235 117.249 148.238 116.171 147.83 114.872C147.601 114.122 147.387 113.356 147.313 112.575C147.414 111.953 148.049 111.675 148.528 111.374C148.047 111.376 147.498 111.524 147.094 111.182C146.535 110.797 146.735 109.971 146.284 109.515C145.884 109.206 145.374 109.104 144.898 108.978C144.904 108.634 144.802 108.228 145.063 107.952C145.326 107.717 145.671 107.604 145.987 107.455C145.619 106.928 145.306 106.361 145.132 105.741C145.87 105.698 146.623 105.748 147.351 105.593C147.792 105.353 148.206 105.066 148.663 104.852C149.053 105.099 149.342 105.46 149.686 105.761C150.514 105.739 151.332 105.537 152.165 105.579C152.697 105.608 153.217 105.511 153.735 105.407C154.28 105.319 154.731 105.705 155.119 106.03Z" fill="#B099BF" fill-opacity="0.8"/>
<path d="M254.922 105.04C255.633 104.92 256.375 104.928 257.059 104.646C257.316 105.142 257.592 105.641 258.009 106.024C258.451 105.653 259.015 105.263 259.625 105.448C260.386 105.647 261.176 105.539 261.95 105.616C262.46 105.662 262.968 105.73 263.481 105.785C263.766 105.427 264.094 105.1 264.487 104.855C264.944 105.074 265.363 105.367 265.811 105.602C266.527 105.739 267.263 105.704 267.99 105.738C267.812 106.354 267.522 106.93 267.157 107.456C267.45 107.595 267.765 107.706 268.027 107.909C268.338 108.169 268.227 108.613 268.248 108.969C267.739 109.107 267.202 109.229 266.784 109.568C266.452 109.965 266.409 110.512 266.326 111.005C265.803 111.326 265.218 111.477 264.607 111.365C265.1 111.695 265.853 112.016 265.816 112.72C265.605 113.955 265.346 115.249 264.582 116.278C263.909 117.191 262.887 117.787 261.818 118.123C259.876 118.745 257.8 118.731 255.79 118.535C254.401 118.398 253.061 117.996 251.709 117.676C251.483 115.939 250.819 114.205 251.156 112.437C251.333 110.864 251.689 109.304 252.322 107.851C252.533 107.376 252.935 107.024 253.186 106.571C253.559 105.873 254.25 105.419 254.922 105.04Z" fill="#B099BF" fill-opacity="0.8"/>
<path d="M240.251 119.042C243.098 118.22 246.126 118.408 249.023 118.848C249.484 120.484 250.215 122.087 250.189 123.816C250.177 125.467 249.979 127.123 249.579 128.723C248.997 129.776 248.547 130.997 247.469 131.655C246.741 131.941 245.957 132.065 245.248 132.406C244.926 131.952 244.588 131.504 244.153 131.151C243.825 131.462 243.493 131.849 243.02 131.911C241.595 131.857 240.183 132.22 238.76 131.995C238.446 132.406 238.115 132.824 237.627 133.035C237.212 132.861 236.826 132.616 236.396 132.491C235.658 132.425 234.922 132.54 234.188 132.559C234.292 131.911 234.571 131.313 234.887 130.743C234.574 130.645 234.239 130.594 233.963 130.417C233.704 130.143 233.74 129.727 233.666 129.385C234.172 129.168 234.745 128.978 235.081 128.509C235.346 128.116 235.283 127.617 235.303 127.17C235.776 126.813 236.313 126.55 236.92 126.534C236.684 126.433 236.445 126.34 236.208 126.256C235.973 125.937 235.572 125.652 235.632 125.211C235.722 123.83 235.823 122.325 236.713 121.194C237.596 120.088 238.937 119.475 240.251 119.042Z" fill="#B099BF" fill-opacity="0.8"/>
<path d="M164.125 118.84C167.15 118.452 170.336 118.164 173.272 119.191C174.573 119.638 175.848 120.38 176.6 121.569C177.291 122.646 177.447 123.962 177.507 125.213C177.561 125.649 177.162 125.935 176.931 126.251C176.684 126.342 176.443 126.44 176.204 126.547C176.814 126.551 177.364 126.804 177.839 127.169C177.853 127.622 177.793 128.133 178.072 128.524C178.409 128.981 178.97 129.169 179.473 129.382C179.398 129.718 179.43 130.112 179.202 130.395C178.928 130.602 178.568 130.635 178.251 130.743C178.582 131.307 178.81 131.921 178.896 132.573C178.155 132.531 177.407 132.405 176.667 132.508C176.27 132.647 175.907 132.861 175.526 133.035C175.023 132.832 174.687 132.403 174.365 131.991C172.968 132.231 171.581 131.854 170.182 131.915C169.679 131.888 169.326 131.475 168.986 131.154C168.556 131.513 168.2 131.948 167.881 132.405C167.187 132.071 166.421 131.943 165.707 131.672C164.863 131.17 164.347 130.303 163.94 129.437C163.414 128.693 163.347 127.766 163.2 126.898C162.982 125.418 162.828 123.898 163.07 122.413C163.337 121.2 163.759 120.026 164.125 118.84Z" fill="#B099BF" fill-opacity="0.8"/>
</svg>
